<?xml version="1.0" standalone="no"?>
<!DOCTYPE svg PUBLIC "-//W3C//DTD SVG 20010904//EN"
 "http://www.w3.org/TR/2001/REC-SVG-20010904/DTD/svg10.dtd">
<svg version="1.0" xmlns="http://www.w3.org/2000/svg"
 width="300.000000pt" height="300.000000pt" viewBox="0 0 300.000000 300.000000"
 preserveAspectRatio="xMidYMid meet">
<metadata>
Created by potrace 1.10, written by Peter Selinger 2001-2011
</metadata>
<g transform="translate(0.000000,300.000000) scale(0.100000,-0.100000)"
fill="#000000" stroke="none">
<path d="M1190 2353 c-248 -41 -433 -169 -529 -365 -23 -46 -48 -110 -57 -143
-20 -76 -33 -392 -15 -381 7 5 11 53 11 146 0 227 33 340 141 476 189 239 519
321 839 210 176 -61 336 -229 385 -401 10 -33 21 -70 26 -83 5 -13 10 -157 11
-320 l2 -297 6 290 c5 281 4 293 -18 374 -13 46 -34 105 -47 130 -98 194 -284
324 -515 361 -63 10 -190 11 -240 3z"/>
<path d="M1195 2248 c-169 -22 -308 -106 -404 -243 -86 -122 -112 -225 -113
-438 0 -87 3 -161 6 -164 3 -4 6 65 6 153 0 130 4 173 21 234 50 185 146 308
300 387 34 18 65 31 68 31 3 -1 13 2 21 5 68 27 250 34 342 12 121 -29 247
-101 318 -183 53 -60 116 -190 129 -266 6 -33 11 -181 12 -330 0 -155 4 -262
9 -251 4 11 7 142 5 290 -2 279 -9 330 -52 424 -109 237 -382 376 -668 339z"/>
<path d="M1189 2015 c-122 -45 -204 -124 -237 -232 -20 -61 -22 -94 -24 -326
-2 -141 0 -257 5 -257 4 0 7 3 7 8 0 4 27 43 60 86 l59 80 -1 123 c-1 143 6
161 83 201 78 41 160 18 200 -58 15 -27 19 -56 19 -131 l0 -96 131 -94 c71
-52 139 -100 151 -108 20 -15 20 -14 16 255 -4 244 -6 274 -26 327 -57 154
-176 238 -335 236 -39 0 -88 -6 -108 -14z m215 -30 c48 -15 98 -47 135 -86 30
-32 69 -121 80 -179 13 -75 15 -437 2 -445 -9 -5 -64 26 -81 46 -3 3 -27 21
-55 39 -86 59 -95 73 -95 153 0 136 -43 205 -139 226 -75 16 -125 1 -177 -54
-48 -49 -55 -80 -53 -217 1 -74 -2 -93 -21 -123 -12 -19 -26 -35 -31 -35 -5 0
-8 94 -6 223 l2 222 29 55 c37 71 114 144 179 169 63 24 162 27 231 6z"/>
<path d="M283 1419 c23 -14 26 -156 2 -165 -27 -11 -16 -22 18 -19 44 4 44 4
25 16 -14 8 -18 23 -18 71 0 71 8 68 41 -12 12 -30 26 -59 30 -64 5 -5 24 24
43 65 l34 74 1 -64 c1 -46 -3 -67 -14 -75 -12 -9 -6 -11 30 -11 25 0 45 3 45
8 0 4 -7 7 -15 7 -24 0 -22 155 3 169 14 9 12 10 -14 11 -30 0 -34 -5 -67 -72
l-34 -73 -33 73 c-30 67 -35 72 -64 72 -26 -1 -28 -2 -13 -11z"/>
<path d="M540 1360 c-10 -6 -11 -10 -2 -10 8 0 12 -17 12 -50 0 -27 -4 -50
-10 -50 -5 0 -10 -4 -10 -9 0 -4 14 -8 30 -7 21 1 29 5 25 14 -3 8 -5 38 -5
68 0 55 -8 64 -40 44z"/>
<path d="M618 1359 c-6 -4 -6 -9 -1 -12 10 -6 9 -84 -1 -94 -12 -13 -5 -18 24
-19 17 -1 30 3 30 7 0 5 -5 9 -11 9 -6 0 -9 19 -7 48 3 40 6 47 26 50 20 3 22
-1 22 -45 0 -27 -4 -53 -9 -58 -6 -6 0 -10 18 -10 27 0 28 1 24 45 -8 90 -8
90 -59 88 -25 -2 -50 -5 -56 -9z"/>
<path d="M774 1355 c-10 -24 6 -32 21 -11 8 11 21 16 30 13 24 -10 17 -31 -17
-47 -44 -21 -57 -45 -36 -67 14 -13 22 -14 42 -5 15 7 28 7 31 2 3 -5 13 -6
21 -3 9 3 12 8 5 12 -5 4 -11 31 -13 61 l-3 55 -38 3 c-27 2 -39 -1 -43 -13z
m66 -69 c0 -24 -23 -41 -41 -30 -15 9 -10 32 9 43 26 16 32 13 32 -13z"/>
<path d="M855 1154 c-16 -7 -40 -13 -52 -14 -31 0 -29 -16 2 -24 l25 -6 0
-218 c0 -226 -3 -242 -42 -242 -10 0 -18 -4 -18 -9 0 -11 165 -9 176 2 4 4 -2
7 -13 7 -40 0 -43 18 -45 272 l-3 244 -30 -12z"/>
<path d="M1950 1152 c-25 -8 -52 -17 -60 -20 -9 -3 -3 -8 18 -14 l32 -9 0 -75
0 -75 -30 16 c-104 54 -220 -37 -220 -172 0 -67 18 -111 59 -146 41 -34 109
-37 159 -7 l32 20 0 -25 c0 -24 1 -24 33 -11 17 8 43 18 57 24 l25 10 -28 11
-28 11 3 240 c2 132 1 239 -2 239 -3 -1 -25 -8 -50 -17z m-41 -208 l31 -26 0
-112 c0 -111 0 -113 -25 -124 -67 -31 -132 5 -154 84 -40 144 54 257 148 178z"/>
<path d="M2230 1080 c-47 -44 -80 -80 -73 -80 6 0 18 7 27 15 8 8 17 15 20 15
4 0 38 21 77 47 44 29 69 52 67 62 -7 33 -36 19 -118 -59z"/>
<path d="M260 1138 c0 -5 9 -8 20 -8 11 0 29 -9 40 -20 19 -19 20 -33 20 -216
0 -110 -4 -203 -10 -214 -5 -10 -23 -21 -40 -25 -69 -15 -18 -21 192 -20 l223
0 22 60 c25 68 26 75 15 75 -5 0 -16 -16 -25 -35 -23 -48 -62 -65 -165 -70
-139 -6 -132 -12 -132 116 l0 109 79 0 c101 0 130 -10 137 -50 12 -59 24 -29
24 60 0 53 -4 90 -10 90 -5 0 -10 -7 -10 -15 0 -8 -9 -24 -20 -35 -17 -17 -33
-20 -110 -20 l-91 0 3 98 3 97 107 0 c115 -1 143 -12 150 -59 2 -17 18 -27 18
-11 0 3 0 27 0 53 l0 49 -220 -1 c-121 -1 -220 -4 -220 -8z"/>
<path d="M1160 1138 c0 -5 9 -8 20 -8 11 0 29 -9 40 -20 19 -19 20 -33 20
-216 0 -110 -4 -203 -10 -214 -5 -10 -23 -21 -40 -25 -70 -15 -17 -21 192 -20
l222 0 23 60 c25 65 27 75 14 75 -5 0 -14 -14 -21 -30 -22 -53 -57 -70 -162
-75 -145 -7 -138 -13 -138 116 l0 109 79 0 c101 0 130 -10 137 -50 12 -59 24
-29 24 60 0 53 -4 90 -10 90 -5 0 -10 -7 -10 -15 0 -8 -9 -24 -20 -35 -17 -17
-33 -20 -110 -20 l-91 0 3 98 3 97 82 3 c116 4 158 -9 173 -53 6 -19 15 -35
20 -35 6 0 4 70 -3 102 -3 10 -437 15 -437 6z"/>
<path d="M2170 967 c-47 -31 -71 -77 -77 -145 -10 -113 50 -192 147 -192 56 0
99 25 140 81 40 56 27 70 -18 21 -47 -50 -88 -60 -140 -35 -40 20 -68 66 -74
122 l-3 33 115 0 c63 0 118 2 122 4 14 9 -18 77 -49 105 -44 38 -113 41 -163
6z m114 -18 c15 -12 26 -30 26 -45 0 -19 -5 -24 -27 -24 -16 -1 -52 -2 -80 -4
-47 -3 -53 -1 -53 16 0 28 54 78 83 78 13 0 36 -9 51 -21z"/>
<path d="M2515 975 c-16 -8 -40 -14 -52 -15 -31 0 -29 -20 1 -20 32 0 36 -15
36 -133 0 -124 -5 -145 -36 -153 -50 -13 -21 -23 61 -21 47 1 85 4 85 7 0 3
-10 10 -22 15 -22 10 -23 15 -23 135 l0 125 39 19 c35 17 42 18 65 5 26 -15
26 -16 29 -147 l3 -131 -26 -7 c-50 -12 -23 -22 60 -21 79 1 114 11 63 19 -22
3 -23 7 -28 145 -5 132 -7 144 -30 168 -32 34 -84 34 -134 0 -20 -14 -39 -25
-41 -25 -3 0 -5 11 -5 25 0 28 -3 29 -45 10z"/>
<path d="M2083 649 c17 -26 65 -54 75 -44 3 3 0 5 -6 5 -6 0 -28 15 -48 33
-34 29 -36 29 -21 6z"/>
</g>
</svg>
